<?xml version="1.0" standalone="no"?>
<!DOCTYPE svg PUBLIC "-//W3C//DTD SVG 20010904//EN"
 "http://www.w3.org/TR/2001/REC-SVG-20010904/DTD/svg10.dtd">
<svg version="1.0" xmlns="http://www.w3.org/2000/svg"
 width="46.084129pt" height="48.000000pt" viewBox="0 0 46.084129 48.000000"
 preserveAspectRatio="xMidYMid meet">
<metadata>
Created by potrace 1.12, written by Peter Selinger 2001-2015
</metadata>
<g transform="translate(-0.000000,48.000000) scale(0.100000,-0.100000)"
fill="#000000" stroke="none">
<path d="M30 400 l0 -80 75 0 c43 0 75 -4 75 -10 0 -5 -4 -10 -9 -10 -10 0
-51 -79 -51 -98 0 -7 -20 -38 -45 -70 -25 -31 -45 -62 -45 -68 0 -6 -7 -17
-15 -24 -8 -7 -15 -19 -15 -26 0 -12 41 -14 230 -14 l231 0 -3 78 -3 77 -79 3
-78 3 6 32 c4 17 13 35 21 40 8 4 15 15 15 22 0 8 4 15 10 15 5 0 12 11 16 24
3 14 12 27 20 30 8 3 14 14 14 25 0 11 13 35 30 53 17 18 30 43 30 55 l0 23
-215 0 -215 0 0 -80z m40 25 c0 -36 -3 -45 -17 -45 -16 0 -16 2 -3 11 12 9 13
12 1 16 -11 5 -11 7 0 15 11 7 11 11 2 15 -18 7 -16 33 2 33 11 0 15 -12 15
-45z m51 28 c1 -17 2 -17 6 0 6 23 93 25 93 2 0 -8 -7 -15 -15 -15 -8 0 -15
-4 -15 -10 0 -5 7 -10 16 -10 9 0 14 -7 12 -17 -3 -15 -16 -19 -66 -21 l-62
-3 0 45 c0 34 4 46 15 46 8 0 16 -8 16 -17z m209 7 c0 -5 -3 -10 -7 -11 -5 0
-25 -2 -45 -5 -29 -4 -38 -1 -38 11 0 11 11 15 45 15 25 0 45 -4 45 -10z m120
-5 c0 -8 -7 -15 -16 -15 -9 0 -14 -6 -11 -13 9 -23 -8 -38 -46 -43 -35 -4 -37
-3 -37 26 0 16 5 30 10 30 6 0 10 -4 10 -10 0 -5 9 -10 20 -10 31 0 24 17 -10
24 -50 9 -34 26 25 26 42 0 55 -3 55 -15z m-120 -55 c0 -16 -7 -19 -45 -18
-37 0 -45 4 -45 19 0 16 8 19 45 19 38 0 45 -3 45 -20z m-147 -57 c-4 -9 -27
-13 -74 -13 -56 0 -69 3 -69 16 0 13 12 15 74 13 55 -2 73 -6 69 -16z m147 2
c0 -11 -12 -15 -45 -15 -33 0 -45 4 -45 15 0 11 12 15 45 15 33 0 45 -4 45
-15z m60 1 c0 -16 -19 -25 -37 -18 -23 8 -14 32 12 32 15 0 25 -6 25 -14z
m-60 -36 c0 -5 -6 -10 -12 -11 -10 0 -10 -2 0 -6 17 -7 15 -23 -3 -23 -8 0
-15 5 -15 10 0 14 -27 12 -34 -2 -5 -10 -7 -10 -12 0 -3 6 -14 12 -24 12 -10
0 -21 -6 -23 -12 -8 -18 -27 11 -20 29 6 16 143 19 143 3z m30 -5 c0 -8 -4
-15 -10 -15 -5 0 -10 7 -10 15 0 8 5 15 10 15 6 0 10 -7 10 -15z m-180 -70 c0
-17 -6 -25 -17 -26 -17 -1 -17 -2 0 -6 17 -4 24 -22 10 -24 -5 0 -17 -2 -29
-3 -17 -2 -19 2 -16 26 2 15 8 28 13 28 5 0 9 7 9 15 0 8 7 15 15 15 9 0 15
-9 15 -25z m150 16 c0 -13 -46 -22 -97 -19 -28 1 -43 6 -43 15 0 10 18 13 70
13 39 0 70 -4 70 -9z m-37 -48 c-7 -2 -13 -10 -13 -17 0 -7 -10 -12 -22 -10
-13 1 -33 3 -45 3 -13 1 -23 7 -23 16 0 12 13 15 58 14 31 0 51 -3 45 -6z
m-163 -98 c0 -43 -1 -45 -29 -45 -36 0 -54 36 -27 55 9 7 16 17 16 24 0 6 9
11 20 11 17 0 20 -7 20 -45z m140 25 c0 -11 -4 -20 -10 -20 -5 0 -12 -11 -16
-25 -3 -14 -13 -25 -21 -25 -8 0 -13 6 -10 13 3 7 -3 13 -13 13 -10 0 -16 -6
-13 -13 3 -8 -3 -13 -14 -13 -16 0 -20 8 -21 45 l-2 45 60 0 c53 0 60 -2 60
-20z m180 5 c0 -20 -116 -22 -123 -2 -4 9 -8 9 -14 1 -6 -9 -11 -8 -20 1 -10
11 4 13 72 14 69 1 85 -2 85 -14z m0 -50 c0 -22 -4 -25 -39 -25 -25 0 -41 5
-45 15 -3 8 -11 15 -18 14 -10 0 -10 -2 0 -6 21 -8 13 -23 -13 -23 -15 0 -25
6 -25 15 0 9 -6 12 -15 9 -9 -4 -15 0 -15 10 0 13 14 16 85 16 84 0 85 0 85
-25z m-180 -10 c0 -8 -4 -15 -10 -15 -5 0 -10 7 -10 15 0 8 5 15 10 15 6 0 10
-7 10 -15z m-140 -45 c0 -18 -7 -20 -60 -20 -33 0 -60 2 -60 5 0 20 31 34 73
35 40 0 47 -3 47 -20z m170 10 c0 -5 -6 -10 -12 -10 -9 0 -8 -4 2 -10 10 -7
-8 -10 -60 -10 -69 0 -76 2 -77 20 -2 18 4 20 73 20 43 0 74 -4 74 -10z m150
0 c0 -5 -8 -10 -17 -11 -15 0 -15 -2 2 -9 14 -6 -4 -9 -55 -9 -52 -1 -70 2
-60 9 10 6 11 10 3 10 -7 0 -13 5 -13 10 0 6 30 10 70 10 40 0 70 -4 70 -10z"/>
</g>
</svg>
